# xmcd
#
# Track frame offsets:
#	150
#	12628
#	35570
#	63294
#	76863
#	90973
#	118344
#	130197
#	160319
#	186017
#	206529
#	237172
#	247587
#	267212
#	288590
#	303015
#
# Disc length: 4404
#
# Revision: 1
# Processed by: cddbd v1.5.1PL0 Copyright (c) Steve Scherf et al.
# Submitted via: CDex 1.50
# Normalized: r0:DSETVAR1,TDELIM( - )
#
DISCID=cd113210
DTITLE=Various Artist - Bar Jazz Vol.5 - CD2
DYEAR=2003
DGENRE=Jazz
TTITLE0=Tamba Trio - Mas Que Nada
TTITLE1=Duke Ellington - C Jam Blues
TTITLE2=Pat Marlino - willow
TTITLE3=Benny Goodman Sexted - She Is Funny That Way
TTITLE4=Billie Holliday - Georgia On My Mind
TTITLE5=Betty Carter - Social Call
TTITLE6=Lambert, Hendricks and Ross - Bijou
TTITLE7=James Carter - Sophisticated Lady
TTITLE8=Andre Previn and Joe Pass - Honeysuckie Rose
TTITLE9=Stanley Clarke - Lisa
TTITLE10=Jonny Hammond - Rock Steady
TTITLE11=Lambert and Hendricks and Ross - Twisted
TTITLE12=Paul Gilbert - My Naomi
TTITLE13=Miles Davis - Stella By Starlight
TTITLE14=Johnny Mathis - Love Is Blue
TTITLE15=Tommy Flannagan - Willow Weep For Me
EXTD=YEAR: 2003
EXTT0=
EXTT1=
EXTT2=
EXTT3=
EXTT4=
EXTT5=
EXTT6=
EXTT7=
EXTT8=
EXTT9=
EXTT10=
EXTT11=
EXTT12=
EXTT13=
EXTT14=
EXTT15=
PLAYORDER=
